<?xml version="1.0" encoding="UTF-8"?>
<svg version="1.1" xmlns="http://www.w3.org/2000/svg" width="512" height="512">
<path d="M0 0 C0.82853485 -0.00979385 1.6570697 -0.01958771 2.51071167 -0.02967834 C29.14486903 -0.27940174 53.70975907 1.78730312 79.1640625 10.23828125 C79.88770996 10.47804688 80.61135742 10.7178125 81.35693359 10.96484375 C91.11768713 14.26911186 100.29204937 18.52585917 109.40527344 23.31835938 C110.93263605 24.11723532 112.4730831 24.89099837 114.015625 25.66015625 C126.93655939 32.29628569 138.65212393 41.27960261 149.1640625 51.23828125 C150.65793949 52.55774621 152.15759326 53.87071164 153.6640625 55.17578125 C155.56377009 56.82245402 157.38534356 58.45956231 159.1640625 60.23828125 C161.12516585 60.76122996 163.11176999 61.19009289 165.10546875 61.5703125 C166.32041016 61.80854736 167.53535156 62.04678223 168.78710938 62.29223633 C169.430271 62.41563385 170.07343262 62.53903137 170.73608398 62.66616821 C224.3800229 73.03159447 270.9923938 100.603852 301.93212891 146.35400391 C312.5855629 162.64873311 320.13888882 180.46485177 325.1640625 199.23828125 C325.37724121 200.02783203 325.59041992 200.81738281 325.81005859 201.63085938 C331.75918503 224.86123097 332.12705013 253.93373513 326.1640625 277.23828125 C325.85807129 278.43928467 325.85807129 278.43928467 325.54589844 279.66455078 C320.99181731 296.94950934 314.34911384 312.80731069 305.49609375 328.3125 C305.11018066 328.99103027 304.72426758 329.66956055 304.32666016 330.36865234 C303.1640625 332.23828125 303.1640625 332.23828125 300.73828125 335.1328125 C297.26138148 341.99170906 302.0577835 351.43831508 304.28607178 358.33677673 C304.69440247 359.58173416 305.10273315 360.82669159 305.5234375 362.109375 C305.95512097 363.4394553 306.38628258 364.76970508 306.81695557 366.10011292 C307.94738152 369.58777626 309.08433857 373.07327405 310.22290039 376.55828857 C311.3605122 380.04355584 312.4926858 383.53058687 313.625 387.01757812 C313.84580671 387.69729329 314.06661343 388.37700846 314.29411125 389.07732105 C315.38678116 392.44100454 316.4789552 395.80484854 317.57058716 399.16886902 C317.78005919 399.81434598 317.98953121 400.45982294 318.20535088 401.12485981 C318.81495297 403.0035554 319.424355 404.8823159 320.03375244 406.76107788 C321.05772189 409.91114275 322.08858203 413.05886647 323.12060547 416.20629883 C323.66937876 417.89911085 324.2177572 419.59205096 324.765625 421.28515625 C325.00722351 422.01314926 325.24882202 422.74114227 325.4977417 423.49119568 C327.87228572 430.8902602 328.85774084 437.66273809 325.4765625 444.80078125 C322.49029495 447.94846866 319.83556497 449.91045069 315.52758789 450.75537109 C306.58533664 450.97304178 300.36237579 448.06796192 292.6015625 443.86328125 C291.47943359 443.27933594 290.35730469 442.69539063 289.20117188 442.09375 C286.18114362 440.51675602 283.17371863 438.91946406 280.17037964 437.31112671 C267.15981701 430.35393995 254.05701183 423.59148737 240.8605957 416.99389648 C238.17374799 415.64935196 235.49019603 414.29836712 232.80664062 412.94726562 C231.08352805 412.08424653 229.36022812 411.22160139 227.63671875 410.359375 C226.44466576 409.75795937 226.44466576 409.75795937 225.22853088 409.14439392 C224.48932907 408.77633133 223.75012726 408.40826874 222.98852539 408.02905273 C222.02191734 407.54467995 222.02191734 407.54467995 221.03578186 407.05052185 C216.59761001 405.12455824 214.30639802 405.25317667 209.74609375 406.93359375 C208.12936768 407.50980469 208.12936768 407.50980469 206.47998047 408.09765625 C204.74578857 408.72414063 204.74578857 408.72414063 202.9765625 409.36328125 C184.32593128 415.85659467 165.01012651 420.28167542 145.1953125 420.4765625 C143.95080322 420.49132126 143.95080322 420.49132126 142.68115234 420.50637817 C124.19055784 420.68040679 106.25671398 420.53176422 88.1640625 416.23828125 C87.13474609 415.9969043 86.10542969 415.75552734 85.04492188 415.50683594 C52.35822621 407.5987644 21.68828937 392.47175934 -2.8359375 369.23828125 C-4.32981449 367.91881629 -5.82946826 366.60585086 -7.3359375 365.30078125 C-9.23564509 363.65410848 -11.05721856 362.01700019 -12.8359375 360.23828125 C-14.80887774 359.71534425 -16.8071621 359.28648176 -18.8125 358.90625 C-20.64385498 358.54829346 -20.64385498 358.54829346 -22.51220703 358.18310547 C-23.15756409 358.05965759 -23.80292114 357.93620972 -24.46783447 357.809021 C-38.98571774 355.01747945 -52.80066277 351.49378043 -66.50390625 345.83984375 C-72.39196504 344.32098101 -77.39998303 347.94553731 -82.3984375 350.67578125 C-84.1084365 351.59289786 -85.81940546 352.50820781 -87.53125 353.421875 C-88.40942383 353.89093262 -89.28759766 354.35999023 -90.19238281 354.84326172 C-94.35408083 357.03941451 -98.559967 359.14360111 -102.7734375 361.23828125 C-103.60037109 361.65005615 -104.42730469 362.06183105 -105.27929688 362.48608398 C-108.63702234 364.15615516 -111.9967802 365.82211645 -115.35644531 367.48828125 C-125.4326629 372.48927331 -135.46014482 377.56210409 -145.39477539 382.83984375 C-148.98069802 384.74408411 -152.57148021 386.63905254 -156.18310547 388.49414062 C-156.80957977 388.8174939 -157.43605408 389.14084717 -158.08151245 389.47399902 C-162.438734 391.37214052 -167.23337402 390.87914452 -171.8359375 390.23828125 C-176.45549026 388.05007205 -178.54961554 385.73634523 -180.8359375 381.23828125 C-182.17093699 372.69704571 -179.9851367 364.9611796 -177.25 356.94140625 C-176.87695236 355.80059097 -176.50390472 354.6597757 -176.11955261 353.48439026 C-175.32469445 351.0608028 -174.52185476 348.63982034 -173.71157837 346.22134399 C-172.45132112 342.45957712 -171.21242427 338.69137853 -169.97924805 334.9206543 C-168.35395512 329.95611552 -166.7213386 324.99411241 -165.08056641 320.03466797 C-162.44118001 312.05199447 -159.82749616 304.0617705 -157.2855835 296.04748535 C-156.66400935 294.09958072 -156.02808915 292.15677923 -155.39111328 290.21386719 C-154.84753174 288.50312012 -154.84753174 288.50312012 -154.29296875 286.7578125 C-153.98335205 285.79979736 -153.67373535 284.84178223 -153.35473633 283.85473633 C-152.50939585 279.59143565 -153.35788093 277.02579409 -155.5859375 273.35546875 C-156.3284375 272.28554688 -157.0709375 271.215625 -157.8359375 270.11328125 C-172.99436663 247.37410856 -182.7877923 218.44648007 -183.07421875 191.015625 C-183.08396729 190.24123581 -183.09371582 189.46684662 -183.10375977 188.66899109 C-183.2719121 171.85007968 -183.2433438 155.6010002 -178.8359375 139.23828125 C-178.64338379 138.51108887 -178.45083008 137.78389648 -178.25244141 137.03466797 C-165.22942231 89.26183852 -133.19889139 50.78711913 -90.6484375 26.11328125 C-63.50608435 10.7145586 -31.38320812 0.30766248 0 0 Z M-112.91870117 82.95214844 C-140.97866657 111.83908096 -152.59384191 148.45138778 -152.11328125 188.1015625 C-151.93033893 197.84040435 -150.50493137 206.89062449 -147.8359375 216.23828125 C-147.63226563 216.9864209 -147.42859375 217.73456055 -147.21875 218.50537109 C-142.33967858 236.05271052 -133.57273369 251.40504123 -122.98828125 266.11328125 C-119.78018694 270.77113143 -119.22365644 274.70740812 -119.8359375 280.23828125 C-120.90628736 284.66080406 -122.31624156 288.95690525 -123.73828125 293.27734375 C-124.34510482 295.17138912 -124.95192456 297.06543572 -125.55851841 298.95955467 C-126.40589764 301.59563797 -127.26385432 304.22822982 -128.12176514 306.86090088 C-129.62347311 311.47516831 -131.11054079 316.09416156 -132.59437561 320.71420288 C-133.38391368 323.16882812 -134.17835067 325.62188433 -134.97825623 328.07315063 C-135.33855423 329.18805878 -135.69885223 330.30296692 -136.07006836 331.45166016 C-136.54638954 332.91437851 -136.54638954 332.91437851 -137.03233337 334.40664673 C-137.86392357 337.33689489 -138.39123605 340.22705942 -138.8359375 343.23828125 C-134.86717519 341.98793115 -131.19319188 340.53968262 -127.4765625 338.67211914 C-125.94467285 337.90606102 -125.94467285 337.90606102 -124.38183594 337.12452698 C-122.75036621 336.30105019 -122.75036621 336.30105019 -121.0859375 335.4609375 C-119.95446289 334.89378525 -118.82298828 334.326633 -117.65722656 333.74229431 C-114.65951059 332.23879762 -111.66357369 330.73186655 -108.66845703 329.22320557 C-105.63197911 327.69475197 -102.59324756 326.17079325 -99.5546875 324.64648438 C-95.10042365 322.4111927 -90.64720271 320.1738532 -86.1953125 317.93383789 C-85.25154251 317.46071671 -84.30777252 316.98759552 -83.33540344 316.50013733 C-81.32384471 315.48460134 -79.32430907 314.44526824 -77.32885742 313.3984375 C-72.70358666 311.24592681 -68.81042695 311.61126405 -64.09130859 313.10986328 C-61.03826585 314.27683314 -58.02955734 315.51789054 -55.0234375 316.80078125 C-52.9788068 317.6646918 -50.9307621 318.52058031 -48.87890625 319.3671875 C-47.98196045 319.7494751 -47.08501465 320.1317627 -46.16088867 320.52563477 C-43.71652084 321.52090176 -43.71652084 321.52090176 -40.8359375 320.23828125 C-41.34382813 319.21992188 -41.85171875 318.2015625 -42.375 317.15234375 C-52.44010866 296.61461228 -59.83326743 274.09119921 -60.07421875 251.015625 C-60.08884155 249.85410919 -60.08884155 249.85410919 -60.10375977 248.66912842 C-60.2723277 231.80938469 -60.12896062 215.6590065 -55.8359375 199.23828125 C-55.56305908 198.12283936 -55.56305908 198.12283936 -55.28466797 196.98486328 C-44.04733613 151.50329413 -12.14401707 113.6336985 27.1887207 89.43432617 C52.67154212 74.1647755 80.8337848 65.38412219 110.1640625 61.23828125 C91.50544604 40.05297714 50.91340274 32.68058295 24.10766602 30.57763672 C-27.74847437 27.35508508 -76.42615536 46.35266163 -112.91870117 82.95214844 Z M11.1640625 140.86328125 C-16.74013662 168.84925331 -30.16107943 204.5560508 -30.1550293 243.76147461 C-30.09098632 254.96521401 -28.91363841 265.44989007 -25.8359375 276.23828125 C-25.65401855 276.89989258 -25.47209961 277.56150391 -25.28466797 278.24316406 C-15.73546969 312.15604516 7.806515 342.10790067 37.1640625 361.23828125 C37.8142334 361.66302734 38.4644043 362.08777344 39.13427734 362.52539062 C80.15404261 388.8689076 128.96060256 395.40359529 176.1640625 385.23828125 C186.58937769 382.81881316 196.42947636 379.14093681 206.21557617 374.82910156 C207.00424072 374.49362305 207.79290527 374.15814453 208.60546875 373.8125 C209.63716187 373.35750122 209.63716187 373.35750122 210.68969727 372.89331055 C217.38258895 371.12152679 222.24787635 372.20012187 228.171875 375.48828125 C229.57539592 376.22741844 230.97939882 376.96564088 232.38378906 377.703125 C233.14453735 378.10901855 233.90528564 378.51491211 234.68908691 378.93310547 C239.32805312 381.37945943 244.02849182 383.70475348 248.71875 386.05078125 C250.75406977 387.07259101 252.78922452 388.09472955 254.82421875 389.1171875 C255.84402832 389.62910645 256.86383789 390.14102539 257.91455078 390.66845703 C260.02331801 391.72794862 262.13137504 392.78885478 264.23876953 393.85107422 C267.31358046 395.40052203 270.39088702 396.94490696 273.46875 398.48828125 C274.41442841 398.96628174 275.36010681 399.44428223 276.33444214 399.93676758 C277.2036026 400.37142334 278.07276306 400.8060791 278.96826172 401.25390625 C279.73274628 401.63836914 280.49723083 402.02283203 281.28488159 402.41894531 C283.12794352 403.37150451 283.12794352 403.37150451 285.1640625 403.23828125 C283.68223797 395.9278192 281.56529343 388.94943741 279.25 381.86328125 C278.48123554 379.47282833 277.71302305 377.08219785 276.9453125 374.69140625 C275.74182181 370.95704543 274.53443683 367.22410474 273.31738281 363.49414062 C272.13729322 359.87087445 270.973727 356.2426296 269.8125 352.61328125 C269.44691986 351.50678223 269.08133972 350.4002832 268.7046814 349.26025391 C266.51255618 342.35758847 264.34434444 335.42187743 267.37890625 328.4453125 C267.94738281 327.65511719 268.51585937 326.86492187 269.1015625 326.05078125 C269.73964844 325.12394531 270.37773437 324.19710937 271.03515625 323.2421875 C271.73769531 322.25089844 272.44023437 321.25960937 273.1640625 320.23828125 C282.51464442 306.41782537 289.66064691 292.40717096 294.1640625 276.23828125 C294.36161133 275.54798828 294.55916016 274.85769531 294.76269531 274.14648438 C300.83585991 252.0206834 300.44549191 226.25683333 294.1640625 204.23828125 C293.98214355 203.57666992 293.80022461 202.91505859 293.61279297 202.23339844 C284.03535289 168.22021982 260.4909876 138.53231092 231.1640625 119.23828125 C230.27799316 118.64974365 230.27799316 118.64974365 229.37402344 118.04931641 C208.39297309 104.30172198 184.86005806 96.09096743 160.1640625 92.23828125 C159.04257812 92.06296875 157.92109375 91.88765625 156.765625 91.70703125 C102.90377107 84.69681165 49.744483 103.06765368 11.1640625 140.86328125 Z " fill="#000000" transform="translate(182.8359375,30.76171875)"/>
<path d="M0 0 C4.61581142 2.18643699 6.72864085 4.49599804 9 9 C9.82885269 14.54808604 9.7240695 19.47140883 7.3125 24.5625 C4.21064779 27.8320199 1.61649202 29.75850523 -2.90234375 30.43359375 C-9.05071801 30.44150672 -13.31314296 30.4465054 -18 26 C-20.97669286 22.20215049 -21.75210871 18.79256501 -22 14 C-21.03973334 8.43045339 -19.27940772 5.65315293 -15 2 C-10.32198701 -1.11867533 -5.47651278 -0.58676923 0 0 Z " fill="#000000" transform="translate(382,256)"/>
<path d="M0 0 C4.61581142 2.18643699 6.72864085 4.49599804 9 9 C9.82885269 14.54808604 9.7240695 19.47140883 7.3125 24.5625 C4.21064779 27.8320199 1.61649202 29.75850523 -2.90234375 30.43359375 C-9.05071801 30.44150672 -13.31314296 30.4465054 -18 26 C-20.97669286 22.20215049 -21.75210871 18.79256501 -22 14 C-21.03973334 8.43045339 -19.27940772 5.65315293 -15 2 C-10.32198701 -1.11867533 -5.47651278 -0.58676923 0 0 Z " fill="#000000" transform="translate(322,256)"/>
<path d="M0 0 C4.61581142 2.18643699 6.72864085 4.49599804 9 9 C9.82885269 14.54808604 9.7240695 19.47140883 7.3125 24.5625 C4.21064779 27.8320199 1.61649202 29.75850523 -2.90234375 30.43359375 C-9.05071801 30.44150672 -13.31314296 30.4465054 -18 26 C-20.97669286 22.20215049 -21.75210871 18.79256501 -22 14 C-21.03973334 8.43045339 -19.27940772 5.65315293 -15 2 C-10.32198701 -1.11867533 -5.47651278 -0.58676923 0 0 Z " fill="#000000" transform="translate(262,256)"/>
</svg>
