<?xml version="1.0" encoding="UTF-8"?>
<svg version="1.1" xmlns="http://www.w3.org/2000/svg" width="238" height="212">
<path d="M0 0 C78.54 0 157.08 0 238 0 C238 69.96 238 139.92 238 212 C159.46 212 80.92 212 0 212 C0 142.04 0 72.08 0 0 Z " fill="#000000" transform="translate(0,0)"/>
<path d="M0 0 C0.99 0 1.98 0 3 0 C3 0.66 3 1.32 3 2 C3.66 2.185625 4.32 2.37125 5 2.5625 C9.67698753 4.80355653 14.10120552 8.4581633 17.22265625 12.63671875 C20.1652089 14.89375364 23.7297679 14.91951456 27.3125 15.375 C47.03941973 18.32170247 65.47717738 27.36012278 77.859375 43.41015625 C81 48.27106742 81 48.27106742 81 51 C81.82242188 50.95359375 82.64484375 50.9071875 83.4921875 50.859375 C91.20760719 50.6099157 97.14017133 51.35021936 104 55 C104.33 55.33 104.66 55.66 105 56 C104.86879112 63.21648813 102.31481211 68.26852211 98 74 C96.62531751 75.25277669 95.22923845 76.48248815 93.8125 77.6875 C89.09268642 82.12180501 88.73346127 86.83495764 87.76171875 93.04296875 C86.19171503 102.25682894 81.77142896 112.43252974 75 119 C74.34 119 73.68 119 73 119 C73 119.66 73 120.32 73 121 C71.730447 121.64834654 70.45930294 122.29357815 69.1875 122.9375 C68.47980469 123.29714844 67.77210938 123.65679687 67.04296875 124.02734375 C60.32859774 127.22405194 51.9309769 127.11825306 44.85546875 125.10546875 C42.51240329 124.15684568 40.24561149 123.15902528 38 122 C38 121.34 38 120.68 38 120 C37.01 120 36.02 120 35 120 C35.33 120.99 35.66 121.98 36 123 C36.804375 123.350625 37.60875 123.70125 38.4375 124.0625 C41.95173033 126.71960098 42.01821034 128.98024707 42.6640625 133.21484375 C42.77492187 134.13394531 42.88578125 135.05304688 43 136 C43.11085937 136.82628906 43.22171875 137.65257812 43.3359375 138.50390625 C44.30230937 147.05760322 44 155.2958636 44 164 C29.81 164 15.62 164 1 164 C1 151.46 1 138.92 1 126 C4.96 128.475 4.96 128.475 9 131 C11.83888324 131.42506048 11.83888324 131.42506048 14 131 C14.495 130.01 14.495 130.01 15 129 C13.948125 128.9175 12.89625 128.835 11.8125 128.75 C7.63537 127.92826951 5.93895333 127.02292342 3 124 C1.05138463 120.12299711 0.78029703 116.99648531 0.875 112.6875 C0.90207031 111.08455078 0.90207031 111.08455078 0.9296875 109.44921875 C0.95289062 108.64097656 0.97609375 107.83273438 1 107 C4.29799596 107.73138309 5.82422299 108.35122799 8 111 C8.433125 111.845625 8.86625 112.69125 9.3125 113.5625 C11.47921109 116.69219379 13.37759808 117.11452398 17 118 C17 117.01 17 116.02 17 115 C16.24847656 114.9278125 15.49695313 114.855625 14.72265625 114.78125 C11.2470155 113.78393558 10.44877888 112.44925348 8.4375 109.5 C5.73691659 105.46849923 5.73691659 105.46849923 1 104 C1 95.42 1 86.84 1 78 C2.485 77.505 2.485 77.505 4 77 C3.35562485 76.79798981 2.71124969 76.59597961 2.04734802 76.3878479 C0 75 0 75 -0.6136322 72.2593689 C-0.66113113 71.11594025 -0.70863007 69.9725116 -0.75756836 68.79443359 C-0.81274628 67.52863464 -0.86792419 66.26283569 -0.92477417 64.9586792 C-1.04314146 58.72972672 -1.01232976 52.51749761 -0.87890625 46.2890625 C-0.85451242 44.94144651 -0.83067411 43.59382037 -0.80735779 42.2461853 C-0.74543537 38.75114084 -0.67612462 35.25628337 -0.60510254 31.76141357 C-0.53357258 28.1743601 -0.46926786 24.58717721 -0.40429688 21 C-0.27647432 13.99985973 -0.14082094 6.99989188 0 0 Z " fill="#FCFCFB" transform="translate(71,37)"/>
<path d="M0 0 C1.09731445 0.00676758 1.09731445 0.00676758 2.21679688 0.01367188 C3.99873419 0.02531852 5.78062863 0.04324809 7.5625 0.0625 C9.06029217 3.05808433 8.67573708 6.1192924 8.64479065 9.4022522 C8.64156152 10.16758534 8.63833239 10.93291848 8.63500541 11.72144353 C8.62289059 14.29953414 8.60352608 16.87752028 8.58422852 19.45556641 C8.57408993 21.29820018 8.56439581 23.14083644 8.55511475 24.98347473 C8.52859163 29.99769339 8.49582077 35.01185437 8.46196485 40.02602816 C8.42766343 45.2617469 8.39905701 50.49749661 8.36985779 55.73324585 C8.313664 65.65321871 8.25231606 75.5731528 8.18913645 85.49308336 C8.11747258 96.7843069 8.05152401 108.07556152 7.98606598 119.36682248 C7.85125655 142.59875675 7.70848121 165.83063306 7.5625 189.0625 C-8.6075 189.0625 -24.7775 189.0625 -41.4375 189.0625 C-41.56920112 173.78692104 -41.69984075 158.51133376 -41.82865143 143.23573017 C-41.88852234 136.1394881 -41.94883108 129.04325031 -42.01025391 121.94702148 C-42.06392654 115.74604002 -42.11669293 109.54505154 -42.16846704 103.34405392 C-42.19578924 100.07515623 -42.22363517 96.80626451 -42.25230408 93.53737831 C-42.31587616 86.27135249 -42.37206657 79.00534679 -42.41534424 71.73917007 C-42.43064346 69.20031931 -42.44754907 66.66147789 -42.46575928 64.12264633 C-42.4935284 60.18489912 -42.50988007 56.24714131 -42.52539062 52.30932617 C-42.53451729 51.1166554 -42.54364395 49.92398462 -42.55304718 48.69517231 C-42.58437323 35.50158267 -41.82538616 22.0794537 -32.46484375 11.921875 C-22.76012557 2.67928626 -13.14725594 -0.15637175 0 0 Z " fill="#FCD391" transform="translate(60.4375,11.9375)"/>
<path d="M0 0 C0.99 0.33 1.98 0.66 3 1 C3 7.93 3 14.86 3 22 C4.65 22.33 6.3 22.66 8 23 C8.99 23.33 9.98 23.66 11 24 C11 24.66 11 25.32 11 26 C11.721875 26.2475 12.44375 26.495 13.1875 26.75 C16.28975304 28.12877913 18.50122551 29.70945672 21 32 C21.33 32.99 21.66 33.98 22 35 C23.1859375 35.14695313 24.371875 35.29390625 25.59375 35.4453125 C42.0160701 37.64826504 54.91341235 41.53978634 68 52 C69.0725 52.66 70.145 53.32 71.25 54 C75.9900053 57.44727658 79.92475431 61.82193821 82.5234375 67.0859375 C86.25310012 71.47446797 90.49294175 71.76100633 96 72.75 C97.98001875 73.13628273 99.95922667 73.5267507 101.9375 73.921875 C102.81277344 74.08268555 103.68804687 74.24349609 104.58984375 74.40917969 C106.96634912 74.9917509 108.86638498 75.81809609 111 77 C110.85795259 78.58367747 110.71119847 80.16693318 110.5625 81.75 C110.44068359 83.07257813 110.44068359 83.07257813 110.31640625 84.421875 C110.03761535 86.69350452 109.61209423 88.79851823 109 91 C108.34 91 107.68 91 107 91 C106.9175 91.53625 106.835 92.0725 106.75 92.625 C105.72418729 95.87340691 104.03436106 98.28751859 102 101 C101.34 101 100.68 101 100 101 C100 101.66 100 102.32 100 103 C99.21625 103.51304688 98.4325 104.02609375 97.625 104.5546875 C93.918375 108.0075852 93.75751588 111.2594896 93 116.125 C91.65816966 123.4374927 90.09292243 129.68110221 86 136 C85.55914062 136.70125 85.11828125 137.4025 84.6640625 138.125 C80.35941033 144.40360869 74.14704176 150.14381572 67 153 C60.28599855 154.00929433 53.6630432 154.39459044 47 153 C47.33 153.66 47.66 154.32 48 155 C49.54542288 166.23770467 49 177.72314053 49 189 C16 189 -17 189 -51 189 C-51 148.74 -51 108.48 -51 67 C-50.67 67 -50.34 67 -50 67 C-50 106.93 -50 146.86 -50 188 C-33.83 188 -17.66 188 -1 188 C-1.00523682 182.34045166 -1.01047363 176.68090332 -1.01586914 170.84985352 C-1.03239966 152.20206927 -1.04351988 133.55428474 -1.05181217 114.90649509 C-1.05697574 103.59447927 -1.06401958 92.28247037 -1.07543945 80.97045898 C-1.08538445 71.11472298 -1.09185299 61.25899199 -1.09408849 51.40325111 C-1.09539592 46.18128364 -1.09848374 40.95933052 -1.10573006 35.73736763 C-1.11248737 30.82829892 -1.11461755 25.91925054 -1.11310768 21.01017761 C-1.11338414 19.20291979 -1.11539097 17.39566133 -1.11920547 15.58840752 C-1.12413823 13.13207875 -1.12299985 10.67582804 -1.12025452 8.21949768 C-1.12316736 7.49480319 -1.1260802 6.7701087 -1.12908131 6.02345377 C-1.11412121 1.11412121 -1.11412121 1.11412121 0 0 Z M2 24 C1.84528897 32.15447055 1.69712325 40.3090239 1.5570364 48.46375751 C1.49177064 52.25137603 1.42435244 56.03892939 1.35180664 59.82641602 C1.28172126 63.48976569 1.21756216 67.15317786 1.15730476 70.81670189 C1.13345206 72.20598222 1.10755686 73.59522922 1.07946587 74.98443031 C0.95027779 81.43315141 0.88408653 87.87484058 1.24243164 94.31713867 C1.28993057 95.17885178 1.3374295 96.04056488 1.3863678 96.9283905 C1.81012928 99.19468221 1.81012928 99.19468221 4.04734802 100.29267883 C4.69172318 100.52609482 5.33609833 100.7595108 6 101 C4.515 101.495 4.515 101.495 3 102 C3 110.58 3 119.16 3 128 C4.65 128.66 6.3 129.32 8 130 C9.625 131.91015625 9.625 131.91015625 11 134.0625 C13.25391706 137.36844093 13.25391706 137.36844093 16.875 139 C17.57625 139 18.2775 139 19 139 C19 139.99 19 140.98 19 142 C14.40723556 141.12518773 12.48103376 139.65375732 9.875 135.9375 C9.41867188 135.22464844 8.96234375 134.51179688 8.4921875 133.77734375 C6.74148729 131.69208565 5.65092591 131.36976434 3 131 C2.32452856 140.52245557 2.32452856 140.52245557 6 149 C9.03888321 151.51038178 10.92407843 152.9064416 14.875 153.25 C15.57625 153.1675 16.2775 153.085 17 153 C16.505 153.99 16.505 153.99 16 155 C10.02176029 154.52174082 8.37421864 153.58281243 3 150 C3 162.54 3 175.08 3 188 C17.19 188 31.38 188 46 188 C46.15106053 174.77692019 46.15106053 174.77692019 45.125 161.75 C45.04636719 161.05777344 44.96773437 160.36554688 44.88671875 159.65234375 C44.41248939 155.83662139 43.74683527 152.44210345 42 149 C39.98330173 147.86649466 39.98330173 147.86649466 38 147 C37.67 146.01 37.34 145.02 37 144 C37.99 144 38.98 144 40 144 C40 144.66 40 145.32 40 146 C48.44665318 150.35956293 57.56336829 151.98529581 66.82421875 149.12890625 C68.96623411 148.18724732 70.97916846 147.17567069 73 146 C73.66 145.67 74.32 145.34 75 145 C75 144.34 75 143.68 75 143 C75.66 143 76.32 143 77 143 C84.66131274 134.60809816 89.66523708 122.86817661 90.8125 111.625 C91.58920033 105.61958509 94.25105825 103.26966087 98.66796875 99.359375 C103.10633695 94.86896563 106.62828924 88.58980937 107.28515625 82.24609375 C107.23855017 79.78601471 107.23855017 79.78601471 104.875 78.3125 C99.46647256 75.84338965 95.09924876 74.75307656 89.125 74.875 C87.97257812 74.89304688 86.82015625 74.91109375 85.6328125 74.9296875 C84.76398438 74.95289063 83.89515625 74.97609375 83 75 C82.7215625 74.25234375 82.443125 73.5046875 82.15625 72.734375 C76.43554973 59.20569192 62.26039748 49.57471146 49.03613281 44.20214844 C41.9177772 41.56017684 35.14267268 39.91907875 27.5625 39.25 C21.04415424 38.50016752 18.10617022 36.16919866 13.96484375 31.19140625 C11.83436342 28.81526417 9.83279653 27.44663337 7 26 C6.34 26 5.68 26 5 26 C5 25.34 5 24.68 5 24 C4.01 24 3.02 24 2 24 Z " fill="#472516" transform="translate(69,13)"/>
<path d="M0 0 C0.33 0 0.66 0 1 0 C1.01030746 1.10310013 1.02061493 2.20620026 1.03123474 3.34272766 C1.12928092 13.77309881 1.2320423 24.20341444 1.33933926 34.63369465 C1.39434318 39.99511607 1.44772525 45.35654312 1.49731445 50.71801758 C1.54529272 55.89871282 1.59764407 61.0793476 1.65294075 66.25996971 C1.6732138 68.22974312 1.69195011 70.19953301 1.70907402 72.16933632 C1.80318272 86.61320082 1.80318272 86.61320082 3 101 C3.33 101 3.66 101 4 101 C4 109.58 4 118.16 4 127 C5.65 127.33 7.3 127.66 9 128 C10.80078125 129.55859375 10.80078125 129.55859375 12.3125 131.4375 C12.82425781 132.05496094 13.33601563 132.67242187 13.86328125 133.30859375 C15 135 15 135 15 137 C16.65 137.33 18.3 137.66 20 138 C20 138.99 20 139.98 20 141 C16.79015005 141.35664999 15.45183037 141.35880647 12.875 139.3125 C11 137 11 137 9.5 134.375 C7.84316728 131.75168153 6.75709066 131.23165116 4 130 C4.11493757 131.89646998 4.24239642 133.79218332 4.375 135.6875 C4.47941406 137.27111328 4.47941406 137.27111328 4.5859375 138.88671875 C5.22114323 143.66274677 6.00957149 146.20765719 9.8125 149.25 C12.69194852 150.8308737 14.77097852 151.62011512 18 152 C17.67 152.99 17.34 153.98 17 155 C11.16645336 154.54246693 9.87964583 153.90371667 5 150 C4.67 162.54 4.34 175.08 4 188 C-13.82 188 -31.64 188 -50 188 C-50 147.74 -50 107.48 -50 66 C-49.67 66 -49.34 66 -49 66 C-49 105.93 -49 145.86 -49 187 C-32.83 187 -16.66 187 0 187 C0 125.29 0 63.58 0 0 Z " fill="#674328" transform="translate(68,14)"/>
<path d="M0 0 C0.99 0.33 1.98 0.66 3 1 C2.34 1 1.68 1 1 1 C1 20.14 1 39.28 1 59 C1.66 59 2.32 59 3 59 C2.98839844 58.21753906 2.97679688 57.43507812 2.96484375 56.62890625 C2.95582031 55.61699219 2.94679688 54.60507813 2.9375 53.5625 C2.92589844 52.55316406 2.91429688 51.54382813 2.90234375 50.50390625 C3 48 3 48 4 47 C8.21328283 46.76151229 11.42177657 46.61451771 15 49 C15.66 49.66 16.32 50.32 17 51 C17.53625 50.175 18.0725 49.35 18.625 48.5 C21 46 21 46 24.0625 45.5 C27 46 27 46 28.9375 47.0625 C30.66665678 50.21566824 29.8590699 52.62508255 29 56 C25.6074861 58.26167593 24.73147816 58.15307144 20.8125 57.9375 C15.45789713 57.8164518 11.85401114 58.80195722 7 61 C7.33 61.66 7.66 62.32 8 63 C9.28687011 66.86061033 9.13757618 69.94150283 9 74 C8.34 74 7.68 74 7 74 C6.67 74.99 6.34 75.98 6 77 C4.02 76.34 2.04 75.68 0 75 C-0.84290158 65.37944487 -1.08575914 55.94530532 -0.87890625 46.2890625 C-0.85451242 44.94144651 -0.83067411 43.59382037 -0.80735779 42.2461853 C-0.74543537 38.75114084 -0.67612462 35.25628337 -0.60510254 31.76141357 C-0.53357258 28.1743601 -0.46926786 24.58717721 -0.40429688 21 C-0.27647432 13.99985973 -0.14082094 6.99989188 0 0 Z " fill="#FADAD6" transform="translate(71,37)"/>
<path d="M0 0 C0.66 0 1.32 0 2 0 C2 0.66 2 1.32 2 2 C2.66 2 3.32 2 4 2 C3.67 2.99 3.34 3.98 3 5 C3.66 5.33 4.32 5.66 5 6 C5.33 4.68 5.66 3.36 6 2 C6.66 2 7.32 2 8 2 C8 2.99 8 3.98 8 5 C10.31 5 12.62 5 15 5 C15 5.99 15 6.98 15 8 C14.34 8 13.68 8 13 8 C13.020625 8.804375 13.04125 9.60875 13.0625 10.4375 C13 13 13 13 12 14 C11.8386942 17.06481021 12.01849759 19.05549278 13 22 C13.99 22 14.98 22 16 22 C16 23.32 16 24.64 16 26 C15.01 26 14.02 26 13 26 C13 25.34 13 24.68 13 24 C10.76740335 22.77227173 10.76740335 22.77227173 8 22 C5.37625345 22.81608777 5.37625345 22.81608777 3 24 C2.01 24 1.02 24 0 24 C0.99 20.535 0.99 20.535 2 17 C1.01 17 0.02 17 -1 17 C-1.309375 17.78375 -1.61875 18.5675 -1.9375 19.375 C-3 22 -3 22 -4 24 C-4.66 24 -5.32 24 -6 24 C-5.25749403 19.91621717 -4.17076699 15.98060777 -3 12 C-3.99 12.495 -3.99 12.495 -5 13 C-5.33 13.99 -5.66 14.98 -6 16 C-8.97 16 -11.94 16 -15 16 C-15.25 7.375 -15.25 7.375 -13 4 C-11.0546875 3.70703125 -11.0546875 3.70703125 -8.875 3.8125 C-7.59625 3.874375 -6.3175 3.93625 -5 4 C-5 3.34 -5 2.68 -5 2 C-3.35 2 -1.7 2 0 2 C0 1.34 0 0.68 0 0 Z " fill="#492613" transform="translate(147,16)"/>
<path d="M0 0 C2 2 2 2 2 4.5625 C-0.76118549 14.05407513 -7.81222711 20.38062356 -15.6875 25.875 C-23.10025416 28.39253915 -31.35626559 28.59985139 -39 27 C-38.505 27.99 -38.505 27.99 -38 29 C-36.45457712 40.23770467 -37 51.72314053 -37 63 C-52.18 63 -67.36 63 -83 63 C-83 62.67 -83 62.34 -83 62 C-68.81 62 -54.62 62 -40 62 C-40.28875 57.58625 -40.5775 53.1725 -40.875 48.625 C-40.96120605 47.25424316 -41.04741211 45.88348633 -41.13623047 44.47119141 C-41.66654175 34.08133181 -41.66654175 34.08133181 -44 24 C-46.47753497 22.02703822 -46.47753497 22.02703822 -49 21 C-49 20.01 -49 19.02 -49 18 C-48.01 18 -47.02 18 -46 18 C-46 18.66 -46 19.32 -46 20 C-45.278125 20.12375 -44.55625 20.2475 -43.8125 20.375 C-41 21 -41 21 -38.74609375 22.015625 C-31.83171956 24.49417734 -23.39904603 24.04388146 -16.75 21 C-16.06421875 20.62875 -15.3784375 20.2575 -14.671875 19.875 C-13 19 -13 19 -11 19 C-11 18.34 -11 17.68 -11 17 C-10.34 17 -9.68 17 -9 17 C-8.73316406 16.44441406 -8.46632813 15.88882813 -8.19140625 15.31640625 C-6.42366451 11.87945263 -4.36373652 8.63052515 -2.33984375 5.33984375 C-0.88020843 2.96895375 -0.88020843 2.96895375 0 0 Z " fill="#563223" transform="translate(155,139)"/>
<path d="M0 0 C8.22383693 -0.50869094 14.63209981 0.15386342 22 4 C22.33 4.33 22.66 4.66 23 5 C22.87004717 12.1474055 20.3014253 17.32856571 16 23 C13.80078125 24.79296875 13.80078125 24.79296875 12 26 C11.01 25.34 10.02 24.68 9 24 C8.3125 20.375 8.3125 20.375 8 17 C8.66 17 9.32 17 10 17 C10 16.34 10 15.68 10 15 C9.01 14.67 8.02 14.34 7 14 C7 13.34 7 12.68 7 12 C7.66 11.67 8.32 11.34 9 11 C8.34 10.5875 7.68 10.175 7 9.75 C6.01 8.88375 6.01 8.88375 5 8 C5 6.68 5 5.36 5 4 C6.65 3.67 8.3 3.34 10 3 C6.7 2.34 3.4 1.68 0 1 C0 0.67 0 0.34 0 0 Z " fill="#F0E9E6" transform="translate(153,88)"/>
<path d="M0 0 C0.66 0.33 1.32 0.66 2 1 C-0.06948445 13.96150789 -3.1900287 28.48550977 -13 38 C-13.66 38 -14.32 38 -15 38 C-15 38.66 -15 39.32 -15 40 C-16.269553 40.64834654 -17.54069706 41.29357815 -18.8125 41.9375 C-19.87404297 42.47697266 -19.87404297 42.47697266 -20.95703125 43.02734375 C-27.67140226 46.22405194 -36.0690231 46.11825306 -43.14453125 44.10546875 C-45.48759671 43.15684568 -47.75438851 42.15902528 -50 41 C-50 40.67 -50 40.34 -50 40 C-49.03960815 40.00785522 -49.03960815 40.00785522 -48.05981445 40.01586914 C-45.14405305 40.03672429 -42.22830738 40.04968729 -39.3125 40.0625 C-38.30509766 40.07087891 -37.29769531 40.07925781 -36.25976562 40.08789062 C-35.28330078 40.09111328 -34.30683594 40.09433594 -33.30078125 40.09765625 C-32.40528564 40.10289307 -31.50979004 40.10812988 -30.5871582 40.11352539 C-27.96358241 39.99840198 -25.55706947 39.58234285 -23 39 C-23 38.34 -23 37.68 -23 37 C-20.525 36.505 -20.525 36.505 -18 36 C-18 35.34 -18 34.68 -18 34 C-17.01 34 -16.02 34 -15 34 C-15 33.34 -15 32.68 -15 32 C-14.34 32 -13.68 32 -13 32 C-13 31.34 -13 30.68 -13 30 C-12.34 30 -11.68 30 -11 30 C-10.896875 29.484375 -10.79375 28.96875 -10.6875 28.4375 C-9.55961313 24.43862835 -7.91190009 20.62115571 -5.875 17 C-4.81526977 14.82033088 -4.81526977 14.82033088 -4.5 11.5 C-4.06419612 8.44937284 -3.55823805 6.59706341 -2 4 C-1.34 4 -0.68 4 0 4 C0 2.68 0 1.36 0 0 Z " fill="#F4E2D9" transform="translate(159,118)"/>
<path d="M0 0 C0.99 0 1.98 0 3 0 C3.33 3.63 3.66 7.26 4 11 C11.92 11 19.84 11 28 11 C28.495 12.98 28.495 12.98 29 15 C25.63022472 16.68488764 21.82707636 16.10015805 18.125 16.0625 C17.30902344 16.05798828 16.49304687 16.05347656 15.65234375 16.04882812 C14.12645017 16.04011585 12.60056594 16.02934967 11.07470703 16.01586914 C9.04985701 16.00038135 7.02490925 16 5 16 C4.34 16 3.68 16 3 16 C3.01160156 17.09699219 3.02320312 18.19398437 3.03515625 19.32421875 C3.04453964 20.77864412 3.05363925 22.23307135 3.0625 23.6875 C3.07087891 24.40873047 3.07925781 25.12996094 3.08789062 25.87304688 C3.10543632 29.71555382 2.93524221 33.26639526 2 37 C1.34 36.67 0.68 36.34 0 36 C-0.495 26.1 -0.495 26.1 -1 16 C-6.61 15.67 -12.22 15.34 -18 15 C-18 14.01 -18 13.02 -18 12 C-16.28490234 11.80083984 -16.28490234 11.80083984 -14.53515625 11.59765625 C-13.0442438 11.4194969 -11.55335982 11.24109918 -10.0625 11.0625 C-9.30775391 10.97548828 -8.55300781 10.88847656 -7.77539062 10.79882812 C-4.07812542 10.65675901 -4.07812542 10.65675901 -1 9 C-0.76807135 7.48530552 -0.58784762 5.96245438 -0.4375 4.4375 C-0.35371094 3.61121094 -0.26992188 2.78492187 -0.18359375 1.93359375 C-0.09271484 0.97646484 -0.09271484 0.97646484 0 0 Z " fill="#FCC682" transform="translate(38,88)"/>
<path d="M0 0 C2.375 0.375 2.375 0.375 5 2 C6.22129237 5.24606657 6.59130927 8.56889877 7 12 C7.11085938 12.82757813 7.22171875 13.65515625 7.3359375 14.5078125 C8.29409271 22.97583285 8.08976564 31.49221247 8 40 C5.36 40 2.72 40 0 40 C0.99 39.505 0.99 39.505 2 39 C1.69899681 21.92972745 1.69899681 21.92972745 -0.6953125 5.07421875 C-1 3 -1 3 0 0 Z " fill="#F2DDD5" transform="translate(107,161)"/>
<path d="M0 0 C2.31 0 4.62 0 7 0 C7.33 0.99 7.66 1.98 8 3 C10.01508358 3.73323796 10.01508358 3.73323796 12 4 C12 4.99 12 5.98 12 7 C10.68 7 9.36 7 8 7 C7.89558594 7.70769531 7.79117188 8.41539063 7.68359375 9.14453125 C6.91358183 12.36098104 5.67207678 14.80285505 4.0625 17.6875 C3.27552734 19.11642578 3.27552734 19.11642578 2.47265625 20.57421875 C1 23 1 23 -1 25 C-2.32 25 -3.64 25 -5 25 C-5.28152915 18.80635868 -4.38556756 13.88093233 -2.5 8 C-2.26152344 7.22527344 -2.02304688 6.45054688 -1.77734375 5.65234375 C-1.19486803 3.76512242 -0.59884697 1.88209049 0 0 Z " fill="#532B23" transform="translate(108,97)"/>
<path d="M0 0 C0.33 0 0.66 0 1 0 C1 8.58 1 17.16 1 26 C2.65 26.33 4.3 26.66 6 27 C7.80078125 28.55859375 7.80078125 28.55859375 9.3125 30.4375 C9.82425781 31.05496094 10.33601563 31.67242187 10.86328125 32.30859375 C12 34 12 34 12 36 C13.65 36.33 15.3 36.66 17 37 C17 37.99 17 38.98 17 40 C13.79015005 40.35664999 12.45183037 40.35880647 9.875 38.3125 C8 36 8 36 6.5 33.375 C4.84316728 30.75168153 3.75709066 30.23165116 1 29 C1.11493757 30.89646998 1.24239642 32.79218332 1.375 34.6875 C1.44460937 35.74324219 1.51421875 36.79898438 1.5859375 37.88671875 C2.22114323 42.66274677 3.00957149 45.20765719 6.8125 48.25 C9.69194852 49.8308737 11.77097852 50.62011512 15 51 C14.67 51.99 14.34 52.98 14 54 C8.16645336 53.54246693 6.87964583 52.90371667 2 49 C1.67 61.21 1.34 73.42 1 86 C0.67 86 0.34 86 0 86 C-0.14512504 79.92095912 -0.28739677 73.84185986 -0.42724609 67.76269531 C-0.47500186 65.70310755 -0.52348074 63.6435364 -0.57275391 61.58398438 C-0.9806313 44.50307802 -1.36063756 27.44818841 -0.5 10.375 C-0.45230469 9.35921875 -0.40460938 8.3434375 -0.35546875 7.296875 C-0.24072826 4.86437658 -0.12228942 2.43212841 0 0 Z " fill="#806155" transform="translate(71,115)"/>
<path d="M0 0 C0.33 0 0.66 0 1 0 C1 2.97 1 5.94 1 9 C3.165625 8.7215625 3.165625 8.7215625 5.375 8.4375 C9.75 7.875 9.75 7.875 12 9 C12.25 15.625 12.25 15.625 10 19 C10 17.02 10 15.04 10 13 C7.03 13 4.06 13 1 13 C1 21.58 1 30.16 1 39 C0.34 39 -0.32 39 -1 39 C-2.14006566 33.10966074 -2.35011502 27.25841885 -2.60546875 21.28125 C-2.6978338 17.00458449 -2.6978338 17.00458449 -4 13 C-6.58605332 12.5316735 -6.58605332 12.5316735 -9.5625 12.375 C-10.57441406 12.30023438 -11.58632813 12.22546875 -12.62890625 12.1484375 C-13.80259766 12.07496094 -13.80259766 12.07496094 -15 12 C-15.33 11.01 -15.66 10.02 -16 9 C-10.06 8.505 -10.06 8.505 -4 8 C-3.525625 6.865625 -3.05125 5.73125 -2.5625 4.5625 C-1 1 -1 1 0 0 Z " fill="#FCC783" transform="translate(55,145)"/>
<path d="M0 0 C0.99 0.33 1.98 0.66 3 1 C2.34 1 1.68 1 1 1 C1 20.8 1 40.6 1 61 C2.65 61.33 4.3 61.66 6 62 C8.16942874 63.87019719 8.92798365 65.18120537 9.1796875 68.04296875 C9.1867196 70.02953653 9.09920508 72.01589835 9 74 C8.34 74 7.68 74 7 74 C6.67 74.99 6.34 75.98 6 77 C4.02 76.34 2.04 75.68 0 75 C-0.84290158 65.37944487 -1.08575914 55.94530532 -0.87890625 46.2890625 C-0.85451242 44.94144651 -0.83067411 43.59382037 -0.80735779 42.2461853 C-0.74543537 38.75114084 -0.67612462 35.25628337 -0.60510254 31.76141357 C-0.53357258 28.1743601 -0.46926786 24.58717721 -0.40429688 21 C-0.27647432 13.99985973 -0.14082094 6.99989188 0 0 Z " fill="#7C5A4D" transform="translate(71,37)"/>
<path d="M0 0 C0.66 0 1.32 0 2 0 C2 0.66 2 1.32 2 2 C2.66 2 3.32 2 4 2 C3.67 2.99 3.34 3.98 3 5 C5.97 5.66 8.94 6.32 12 7 C11 11 11 11 10 14 C9.01 14 8.02 14 7 14 C6.87625 14.804375 6.7525 15.60875 6.625 16.4375 C6.41875 17.283125 6.2125 18.12875 6 19 C5.34 19.33 4.68 19.66 4 20 C3.505 17.525 3.505 17.525 3 15 C2.01 14.67 1.02 14.34 0 14 C0 13.34 0 12.68 0 12 C2.31 12.33 4.62 12.66 7 13 C6.34 11.68 5.68 10.36 5 9 C4.67 9.33 4.34 9.66 4 10 C2.48071962 10.07179964 0.95832518 10.08392007 -0.5625 10.0625 C-1.38878906 10.05347656 -2.21507812 10.04445313 -3.06640625 10.03515625 C-3.70449219 10.02355469 -4.34257812 10.01195312 -5 10 C-5.33 8.35 -5.66 6.7 -6 5 C-7.98 5 -9.96 5 -12 5 C-12 5.66 -12 6.32 -12 7 C-10.68 7 -9.36 7 -8 7 C-8 8.98 -8 10.96 -8 13 C-9.65 13 -11.3 13 -13 13 C-13 13.99 -13 14.98 -13 16 C-13.66 16 -14.32 16 -15 16 C-15.05422947 14.5629191 -15.09289723 13.12524538 -15.125 11.6875 C-15.14820313 10.88699219 -15.17140625 10.08648437 -15.1953125 9.26171875 C-15 7 -15 7 -13 4 C-11.0546875 3.70703125 -11.0546875 3.70703125 -8.875 3.8125 C-7.59625 3.874375 -6.3175 3.93625 -5 4 C-5 3.34 -5 2.68 -5 2 C-3.35 2 -1.7 2 0 2 C0 1.34 0 0.68 0 0 Z " fill="#3B1C0B" transform="translate(147,16)"/>
<path d="M0 0 C0.99 0.495 0.99 0.495 2 1 C1.99777939 2.0655159 1.99555878 3.1310318 1.99327087 4.22883606 C1.97293522 14.30596692 1.95797784 24.38309358 1.94818783 34.46024036 C1.94298539 39.64008761 1.93593602 44.8199182 1.92456055 49.99975586 C1.91363744 55.00534413 1.90770331 60.01091645 1.90512276 65.01651573 C1.90328541 66.91932107 1.89969775 68.8221256 1.89426994 70.72492409 C1.09867679 85.06058581 1.09867679 85.06058581 3 99 C4.9650112 100.31642322 4.9650112 100.31642322 7 101 C6.195625 101.12375 5.39125 101.2475 4.5625 101.375 C3.2940625 101.684375 3.2940625 101.684375 2 102 C1.505 102.99 1.505 102.99 1 104 C-0.16876065 92.60485282 -0.12898629 81.26559023 -0.09765625 69.82421875 C-0.09578737 67.80255671 -0.09436569 65.78089422 -0.09336853 63.75923157 C-0.08958037 58.48054721 -0.0797824 53.2018911 -0.06866455 47.92321777 C-0.05837015 42.51977927 -0.05385383 37.11633614 -0.04882812 31.71289062 C-0.03815622 21.14191479 -0.02112515 10.57095976 0 0 Z " fill="#3D1206" transform="translate(69,13)"/>
<path d="M0 0 C5.44082474 1.81360825 7.29053697 2.7391672 11.25 6.4375 C12.10078125 7.21996094 12.9515625 8.00242187 13.828125 8.80859375 C16 11 16 11 18 14 C17.34 14 16.68 14 16 14 C16 14.99 16 15.98 16 17 C14.02 17.33 12.04 17.66 10 18 C9.34 16.68 8.68 15.36 8 14 C4.94729537 13.84188612 4.94729537 13.84188612 2 15 C1.34 14.67 0.68 14.34 0 14 C0 9.38 0 4.76 0 0 Z " fill="#F8F1EE" transform="translate(72,38)"/>
<path d="M0 0 C0.66 0 1.32 0 2 0 C2 6.93 2 13.86 2 21 C3.65 21.33 5.3 21.66 7 22 C7.99 22.33 8.98 22.66 10 23 C10 23.66 10 24.32 10 25 C10.721875 25.2475 11.44375 25.495 12.1875 25.75 C15.28975304 27.12877913 17.50122551 28.70945672 20 31 C20.33 31.99 20.66 32.98 21 34 C25.29 34.66 29.58 35.32 34 36 C31.40963249 38.59036751 30.05502996 38.47959598 26.4375 38.6875 C22.55485375 38.64570118 20.60749253 38.44630203 17.453125 36.12890625 C15.94516726 34.54555062 14.47542923 32.92488149 13.046875 31.26953125 C10.33038967 28.25755038 7.61409745 26.76860088 4 25 C4 24.34 4 23.68 4 23 C3.01 23 2.02 23 1 23 C0.67 23.66 0.34 24.32 0 25 C0 16.75 0 8.5 0 0 Z " fill="#492613" transform="translate(70,14)"/>
<path d="M0 0 C1.58409994 0.11487748 3.16728963 0.24234508 4.75 0.375 C6.07257813 0.47941406 6.07257813 0.47941406 7.421875 0.5859375 C9.99066382 0.99850055 11.75841015 1.71160957 14 3 C13.42657506 7.2967595 11.89841036 10.18479721 9.5625 13.8125 C8.94503906 14.78832031 8.32757813 15.76414062 7.69140625 16.76953125 C7.13324219 17.50558594 6.57507813 18.24164063 6 19 C5.34 19 4.68 19 4 19 C3.67 16.69 3.34 14.38 3 12 C3.66 12 4.32 12 5 12 C5 11.34 5 10.68 5 10 C4.01 9.67 3.02 9.34 2 9 C2 8.34 2 7.68 2 7 C2.66 6.67 3.32 6.34 4 6 C3.34 5.566875 2.68 5.13375 2 4.6875 C1.34 4.130625 0.68 3.57375 0 3 C0 2.01 0 1.02 0 0 Z " fill="#FAAA9D" transform="translate(158,93)"/>
<path d="M0 0 C0.99 0 1.98 0 3 0 C3 1.65 3 3.3 3 5 C12.9 4.67 22.8 4.34 33 4 C33 5.32 33 6.64 33 8 C20.46 8 7.92 8 -5 8 C-3 4 -3 4 -1 3 C-0.67 2.01 -0.34 1.02 0 0 Z " fill="#FBC682" transform="translate(34,40)"/>
<path d="M0 0 C0.66 0 1.32 0 2 0 C2.6875 1.75 2.6875 1.75 3 4 C1.6875 6.25 1.6875 6.25 0 8 C-0.66 8 -1.32 8 -2 8 C-2 8.66 -2 9.32 -2 10 C-3.16982422 10.75990234 -3.16982422 10.75990234 -4.36328125 11.53515625 C-8.11804575 15.04516573 -8.37482951 18.49781164 -9.1875 23.4375 C-9.48942583 25.1244303 -9.79530641 26.81065839 -10.10546875 28.49609375 C-10.24903809 29.27968262 -10.39260742 30.06327148 -10.54052734 30.87060547 C-11.08315924 33.38539582 -11.913791 35.66967497 -13 38 C-15.61959568 34.07060649 -14.8316184 32.56445101 -14 28 C-13.855625 26.79601562 -13.71125 25.59203125 -13.5625 24.3515625 C-12.33473925 16.21764751 -10.5963852 11.27482315 -4.05859375 5.83203125 C-1.98597874 3.98752187 -1.0427155 2.54197129 0 0 Z " fill="#492414" transform="translate(171,106)"/>
<path d="M0 0 C0.79647949 0.00193359 1.59295898 0.00386719 2.41357422 0.00585938 C8.80920497 0.05226992 15.14056437 0.42670903 21.5 1.125 C20.84 2.115 20.18 3.105 19.5 4.125 C17.43701172 4.46557617 17.43701172 4.46557617 14.9296875 4.41796875 C14.03378906 4.40830078 13.13789062 4.39863281 12.21484375 4.38867188 C10.80912109 4.3509668 10.80912109 4.3509668 9.375 4.3125 C8.43011719 4.29896484 7.48523438 4.28542969 6.51171875 4.27148438 C4.17391221 4.23606306 1.83723763 4.18667271 -0.5 4.125 C-1.16 6.105 -1.82 8.085 -2.5 10.125 C-3.16 9.795 -3.82 9.465 -4.5 9.125 C-4.5 7.475 -4.5 5.825 -4.5 4.125 C-7.14 3.795 -9.78 3.465 -12.5 3.125 C-12.5 2.465 -12.5 1.805 -12.5 1.125 C-8.3348178 -0.04139001 -4.29667525 -0.02494441 0 0 Z " fill="#FBC681" transform="translate(32.5,126.875)"/>
<path d="M0 0 C1.9375 1.0625 1.9375 1.0625 3 3 C2.875 6.5625 2.875 6.5625 2 10 C-1.45029042 12.30019361 -2.94554358 12.43132515 -7 12 C-9.31282587 8.53076119 -9.42478586 7.07794425 -9 3 C-6.79086995 -0.68188342 -4.01844539 -0.50230567 0 0 Z " fill="#492515" transform="translate(98,83)"/>
<path d="M0 0 C0.99 0.99 1.98 1.98 3 3 C3 9.93 3 16.86 3 24 C-12.18 24 -27.36 24 -43 24 C-43 23.67 -43 23.34 -43 23 C-28.81 23 -14.62 23 0 23 C0 15.41 0 7.82 0 0 Z " fill="#564238" transform="translate(115,178)"/>
<path d="M0 0 C1.94024048 0.07069702 1.94024048 0.07069702 3.91967773 0.14282227 C4.9496714 0.17823875 4.9496714 0.17823875 6.00047302 0.21437073 C8.20160776 0.29117032 10.40240492 0.37512354 12.60327148 0.45922852 C14.09218705 0.51243295 15.58111928 0.56517344 17.07006836 0.61743164 C20.72717821 0.74680703 24.3840182 0.8826009 28.04077148 1.02172852 C28.04077148 2.01172852 28.04077148 3.00172852 28.04077148 4.02172852 C18.47077148 4.02172852 8.90077148 4.02172852 -0.95922852 4.02172852 C-1.28922852 5.34172852 -1.61922852 6.66172852 -1.95922852 8.02172852 C-2.61922852 8.02172852 -3.27922852 8.02172852 -3.95922852 8.02172852 C-4.00164575 5.68878076 -4.00015789 3.35470285 -3.95922852 1.02172852 C-2.95922852 0.02172852 -2.95922852 0.02172852 0 0 Z " fill="#FBC482" transform="translate(21.959228515625,71.978271484375)"/>
<path d="M0 0 C0 0.99 0 1.98 0 3 C0.99 3.33 1.98 3.66 3 4 C2.125 8.875 2.125 8.875 1 10 C-2.66344611 10.13568319 -5.50615721 10.16461426 -9 9 C-9 6.36 -9 3.72 -9 1 C-5.64919071 -1.10976881 -3.77897651 -1.0497157 0 0 Z " fill="#FADCD8" transform="translate(148,112)"/>
<path d="M0 0 C3.0625 0.3125 3.0625 0.3125 4.9375 1.5 C6.48479478 3.99286381 6.56655716 5.43217335 6.0625 8.3125 C4.375 10.1875 4.375 10.1875 2.0625 11.3125 C-1.30786311 11.07175978 -2.52548021 10.72451979 -4.9375 8.3125 C-5.1875 5.3125 -5.1875 5.3125 -4.9375 2.3125 C-2.9375 0.3125 -2.9375 0.3125 0 0 Z " fill="#502816" transform="translate(134.9375,100.6875)"/>
<path d="M0 0 C1.65 0.33 3.3 0.66 5 1 C4.27751215 6.59928081 2.29144125 13.09814565 -2.13671875 16.7734375 C-3.05904297 17.38058594 -3.05904297 17.38058594 -4 18 C-3.91621094 17.08476563 -3.83242187 16.16953125 -3.74609375 15.2265625 C-3.64425781 14.03804687 -3.54242188 12.84953125 -3.4375 11.625 C-3.33308594 10.44164063 -3.22867188 9.25828125 -3.12109375 8.0390625 C-2.75846404 5.08101369 -2.75846404 5.08101369 -4 3 C-3.34 2.34 -2.68 1.68 -2 1 C-1.67 1.33 -1.34 1.66 -1 2 C-0.67 1.34 -0.34 0.68 0 0 Z " fill="#F48E81" transform="translate(110,100)"/>
<path d="M0 0 C1.41152344 0.07250977 1.41152344 0.07250977 2.8515625 0.14648438 C3.83640625 0.20255859 4.82125 0.25863281 5.8359375 0.31640625 C6.82851563 0.36861328 7.82109375 0.42082031 8.84375 0.47460938 C11.29978318 0.60449574 13.7554311 0.73946789 16.2109375 0.87890625 C15.8809375 1.86890625 15.5509375 2.85890625 15.2109375 3.87890625 C4.3209375 4.37390625 4.3209375 4.37390625 -6.7890625 4.87890625 C-6.7890625 3.55890625 -6.7890625 2.23890625 -6.7890625 0.87890625 C-4.28805676 -0.37159662 -2.78563198 -0.15102824 0 0 Z " fill="#FCC681" transform="translate(26.7890625,177.12109375)"/>
<path d="M0 0 C0.81726563 0.15339844 1.63453125 0.30679688 2.4765625 0.46484375 C6.44624772 1.0677782 10.36946033 1.34157964 14.375 1.5625 C15.11105469 1.60568359 15.84710938 1.64886719 16.60546875 1.69335938 C18.40348068 1.79843799 20.20171958 1.89962093 22 2 C22.33 2.99 22.66 3.98 23 5 C15.52256339 5.84349132 9.19701539 6.39900513 2 4 C2 3.01 2 2.02 2 1 C1.34 0.67 0.68 0.34 0 0 Z " fill="#4B2618" transform="translate(113,161)"/>
<path d="M0 0 C2.375 0.375 2.375 0.375 5 2 C7.00468103 7.44991176 7.24995055 13.25113734 7 19 C5.09598862 17.09598862 4.06479561 15.66574314 3.80078125 12.953125 C3.8113422 10.96766727 3.90084957 8.9830086 4 7 C3.34 7 2.68 7 2 7 C2 9.64 2 12.28 2 15 C1.67 15 1.34 15 1 15 C0.63684334 13.0641649 0.28477269 11.12624752 -0.0625 9.1875 C-0.25972656 8.10855469 -0.45695312 7.02960938 -0.66015625 5.91796875 C-1 3 -1 3 0 0 Z " fill="#F4E2D9" transform="translate(107,161)"/>
<path d="M0 0 C4.46997391 2.42655726 8.67440245 5.34880489 11 10 C8.69 9.67 6.38 9.34 4 9 C4.33 9.66 4.66 10.32 5 11 C3.35 10.67 1.7 10.34 0 10 C0 6.7 0 3.4 0 0 Z " fill="#F9A497" transform="translate(72,42)"/>
<path d="M0 0 C0.33 0 0.66 0 1 0 C0.90460938 0.90363281 0.80921875 1.80726562 0.7109375 2.73828125 C0.60007812 3.91777344 0.48921875 5.09726563 0.375 6.3125 C0.25898437 7.48425781 0.14296875 8.65601562 0.0234375 9.86328125 C-0.29448782 13.16591167 -0.29448782 13.16591167 2 16 C1.34 16.66 0.68 17.32 0 18 C-1.32 18 -2.64 18 -4 18 C-4.34183203 11.7330794 -3.44818504 6.79699775 -1 1 C-0.67 0.67 -0.34 0.34 0 0 Z " fill="#734236" transform="translate(107,104)"/>
<path d="M0 0 C5 1 5 1 6 2 C6.26293056 6.03160191 6.29404844 7.55892734 4 11 C2.68 11 1.36 11 0 11 C0 7.37 0 3.74 0 0 Z " fill="#C5B1AA" transform="translate(71,101)"/>
<path d="M0 0 C0.66 1.32 1.32 2.64 2 4 C-0.97 3.67 -3.94 3.34 -7 3 C-7 3.66 -7 4.32 -7 5 C-5.68 5 -4.36 5 -3 5 C-3 6.98 -3 8.96 -3 11 C-4.65 11 -6.3 11 -8 11 C-8 11.99 -8 12.98 -8 14 C-8.66 14 -9.32 14 -10 14 C-10.05422947 12.5629191 -10.09289723 11.12524538 -10.125 9.6875 C-10.14820313 8.88699219 -10.17140625 8.08648437 -10.1953125 7.26171875 C-10 5 -10 5 -8 2 C-6.0546875 1.70703125 -6.0546875 1.70703125 -3.875 1.8125 C-2.59625 1.874375 -1.3175 1.93625 0 2 C0 1.34 0 0.68 0 0 Z " fill="#311709" transform="translate(142,18)"/>
<path d="M0 0 C13.56886228 -0.39520958 13.56886228 -0.39520958 18 2 C18.875 4.125 18.875 4.125 19 6 C14.1666528 6.08333357 9.76307437 5.95261487 5 5 C5 4.67 5 4.34 5 4 C6.65 3.67 8.3 3.34 10 3 C6.7 2.34 3.4 1.68 0 1 C0 0.67 0 0.34 0 0 Z " fill="#E6DBD9" transform="translate(153,88)"/>
<path d="M0 0 C3.84606725 -0.08944342 7.24683592 0.18850506 11 1 C11.99 1 12.98 1 14 1 C14 1.99 14 2.98 14 4 C9.64709404 4.76815988 6.2900437 5.07251092 2 4 C1.01 4 0.02 4 -1 4 C-0.67 2.68 -0.34 1.36 0 0 Z " fill="#412411" transform="translate(205,28)"/>
<path d="M0 0 C0.51949219 0.34933594 1.03898437 0.69867188 1.57421875 1.05859375 C6.87724314 4.54055504 6.87724314 4.54055504 13 6 C12.67 6.99 12.34 7.98 12 9 C6.74568665 8.58789699 3.7645482 7.7645482 0 4 C-0.33 3.01 -0.66 2.02 -1 1 C-0.67 0.67 -0.34 0.34 0 0 Z " fill="#593528" transform="translate(73,160)"/>
<path d="M0 0 C1.36511719 0.29197266 1.36511719 0.29197266 2.7578125 0.58984375 C3.45648438 0.74582031 4.15515625 0.90179688 4.875 1.0625 C4.875 2.3825 4.875 3.7025 4.875 5.0625 C4.22273438 4.92972656 3.57046875 4.79695313 2.8984375 4.66015625 C-1.7658287 3.71767178 -6.42368454 2.80481297 -11.125 2.0625 C-4.875 -1.0625 -4.875 -1.0625 0 0 Z " fill="#573424" transform="translate(109.125,50.9375)"/>
<path d="M0 0 C7.56363636 -0.29090909 7.56363636 -0.29090909 11 2 C12.97194115 3.97194115 13.832365 5.50904533 15 8 C15.33 8.66 15.66 9.32 16 10 C14.02 10.33 12.04 10.66 10 11 C9.896875 9.88625 9.79375 8.7725 9.6875 7.625 C9.460625 6.42875 9.23375 5.2325 9 4 C5.77626323 1.85084215 4.73296326 1.61713197 1 2 C0.34 2.66 -0.32 3.32 -1 4 C-0.67 2.68 -0.34 1.36 0 0 Z " fill="#F9ECE8" transform="translate(75,84)"/>
<path d="M0 0 C0.66 0 1.32 0 2 0 C2.6875 1.75 2.6875 1.75 3 4 C1.6875 6.25 1.6875 6.25 0 8 C-0.66 8 -1.32 8 -2 8 C-2 8.66 -2 9.32 -2 10 C-3.65 10.66 -5.3 11.32 -7 12 C-7 8.43013844 -6.3954571 7.97905092 -4.0625 5.4375 C-1.75540038 2.91000271 -1.75540038 2.91000271 0 0 Z " fill="#512C1D" transform="translate(171,106)"/>
<path d="M0 0 C0.75 1.625 0.75 1.625 1 4 C-1.02291546 7.61234904 -2.53871879 9.6924792 -6 12 C-6.64453125 10.23046875 -6.64453125 10.23046875 -7 8 C-6.07421875 6.11328125 -6.07421875 6.11328125 -4.6875 4.3125 C-4.23761719 3.71050781 -3.78773438 3.10851562 -3.32421875 2.48828125 C-2 1 -2 1 0 0 Z " fill="#F6F3F0" transform="translate(171,102)"/>
<path d="M0 0 C2.39439431 0.46557667 4.7664125 0.93816802 7.125 1.5625 C9.1660264 2.11361481 9.1660264 2.11361481 12 2 C11.34 3.32 10.68 4.64 10 6 C6.31733897 5.40049704 2.65456815 4.75241109 -1 4 C-0.67 2.68 -0.34 1.36 0 0 Z " fill="#3D2010" transform="translate(176,26)"/>
<path d="M0 0 C6.28260706 -0.23268915 11.88019467 0.59545452 18 2 C17.01 2.33 16.02 2.66 15 3 C15 3.66 15 4.32 15 5 C9.33895411 4.50341703 5.12325529 3.45489316 0 1 C0 0.67 0 0.34 0 0 Z " fill="#E8D5CC" transform="translate(109,158)"/>
<path d="M0 0 C3.63 0 7.26 0 11 0 C11 1.32 11 2.64 11 4 C7.37 4 3.74 4 0 4 C0 2.68 0 1.36 0 0 Z " fill="#FBC885" transform="translate(56,72)"/>
<path d="M0 0 C0.99 0 1.98 0 3 0 C3 1.98 3 3.96 3 6 C2.01 6 1.02 6 0 6 C-0.185625 7.2065625 -0.185625 7.2065625 -0.375 8.4375 C-0.58125 9.283125 -0.7875 10.12875 -1 11 C-1.99 11.495 -1.99 11.495 -3 12 C-3.33 10.35 -3.66 8.7 -4 7 C-4.99 6.67 -5.98 6.34 -7 6 C-7 5.34 -7 4.68 -7 4 C-4.69 4.33 -2.38 4.66 0 5 C0 3.35 0 1.7 0 0 Z " fill="#1E0A02" transform="translate(154,24)"/>
<path d="M0 0 C0.66 0.66 1.32 1.32 2 2 C1.75704021 7.22363541 -0.31257865 10.66544943 -3 15 C-3.66 14.67 -4.32 14.34 -5 14 C-4.34580901 8.93001981 -2.1453591 4.58009223 0 0 Z " fill="#532B1E" transform="translate(155,139)"/>
<path d="M0 0 C0.66 0.33 1.32 0.66 2 1 C1.54994536 3.43929614 1.09035124 5.87611777 0.625 8.3125 C0.49867188 9.00279297 0.37234375 9.69308594 0.2421875 10.40429688 C-0.42114318 13.83703314 -1.03497639 16.05246458 -3 19 C-2.979375 17.9275 -2.95875 16.855 -2.9375 15.75 C-2.83459411 12.22191619 -2.83459411 12.22191619 -3.625 9.8125 C-4.13936245 7.32641484 -3.28423608 6.11521237 -2 4 C-1.34 4 -0.68 4 0 4 C0 2.68 0 1.36 0 0 Z " fill="#EADFDA" transform="translate(159,118)"/>
<path d="M0 0 C1.65 0.33 3.3 0.66 5 1 C4.25 5.75 4.25 5.75 2 8 C1.01 7.01 0.02 6.02 -1 5 C-1.33 5.66 -1.66 6.32 -2 7 C-2.66 5.68 -3.32 4.36 -4 3 C-3.34 2.34 -2.68 1.68 -2 1 C-1.67 1.33 -1.34 1.66 -1 2 C-0.67 1.34 -0.34 0.68 0 0 Z " fill="#CB7B6F" transform="translate(110,100)"/>
<path d="M0 0 C-0.99 0.66 -1.98 1.32 -3 2 C-3.33 2.66 -3.66 3.32 -4 4 C-4.66 4 -5.32 4 -6 4 C-6.33 4.99 -6.66 5.98 -7 7 C-6.34 7.33 -5.68 7.66 -5 8 C-5 8.66 -5 9.32 -5 10 C-3.68 10.66 -2.36 11.32 -1 12 C-3.875 12.1875 -3.875 12.1875 -7 12 C-9.31282587 8.53076119 -9.42478586 7.07794425 -9 3 C-6.77089201 -0.71517998 -4.03410755 -0.2689405 0 0 Z " fill="#5E3E31" transform="translate(98,83)"/>
<path d="M0 0 C0.33 1.32 0.66 2.64 1 4 C0.01 4.495 0.01 4.495 -1 5 C-2.13350534 7.01669827 -2.13350534 7.01669827 -3 9 C-4.32 8.67 -5.64 8.34 -7 8 C-7 8.99 -7 9.98 -7 11 C-7.66 11 -8.32 11 -9 11 C-7.59928507 5.70841026 -4.14512755 3.22521956 0 0 Z " fill="#D6B781" transform="translate(33,20)"/>
<path d="M0 0 C1.19397377 2.38794754 1.68393897 4.34508736 2 7 C1.36959957 8.35085807 0.69748583 9.68252676 0 11 C-0.38749213 13.32495277 -0.72982839 15.65851268 -1 18 C-1.66 17.67 -2.32 17.34 -3 17 C-2.22095672 5.47835991 -2.22095672 5.47835991 0 0 Z " fill="#DFBD86" transform="translate(22,34)"/>
<path d="M0 0 C3 3.75 3 3.75 3 6 C3.99 6 4.98 6 6 6 C6 7.32 6 8.64 6 10 C5.01 10 4.02 10 3 10 C3 9.34 3 8.68 3 8 C2.21625 7.690625 1.4325 7.38125 0.625 7.0625 C-2 6 -2 6 -4 5 C-2.68 4.67 -1.36 4.34 0 4 C0 2.68 0 1.36 0 0 Z " fill="#3E1E10" transform="translate(157,32)"/>
<path d="M0 0 C0.33 0 0.66 0 1 0 C1.06058594 0.81984375 1.12117188 1.6396875 1.18359375 2.484375 C1.26738281 3.56203125 1.35117188 4.6396875 1.4375 5.75 C1.55931641 7.35101563 1.55931641 7.35101563 1.68359375 8.984375 C1.9073895 11.89064628 1.9073895 11.89064628 2.59765625 14.203125 C3 16 3 16 2 19 C1.01 19 0.02 19 -1 19 C-0.67 12.73 -0.34 6.46 0 0 Z " fill="#6F4F3F" transform="translate(71,144)"/>
<path d="M0 0 C0.66 0 1.32 0 2 0 C2 2.64 2 5.28 2 8 C1.34 8 0.68 8 0 8 C-0.33 8.99 -0.66 9.98 -1 11 C-2.65 10.67 -4.3 10.34 -6 10 C-5.38125 9.46375 -4.7625 8.9275 -4.125 8.375 C-1.7217098 5.68896977 -0.93977847 3.44585438 0 0 Z " fill="#583127" transform="translate(78,103)"/>
<path d="M0 0 C6.45280438 0.4870041 6.45280438 0.4870041 9 2.875 C10 5 10 5 9 8 C7.68388323 7.04663979 6.37221039 6.08714226 5.0625 5.125 C4.33160156 4.59132813 3.60070312 4.05765625 2.84765625 3.5078125 C1 2 1 2 0 0 Z " fill="#573426" transform="translate(136,68)"/>
<path d="M0 0 C0.66 0.33 1.32 0.66 2 1 C1.67 2.65 1.34 4.3 1 6 C-1.97 6.66 -4.94 7.32 -8 8 C-8 7.01 -8 6.02 -8 5 C-6.35 4.67 -4.7 4.34 -3 4 C-3 3.34 -3 2.68 -3 2 C-2.01 2 -1.02 2 0 2 C0 1.34 0 0.68 0 0 Z " fill="#FAE9E4" transform="translate(144,150)"/>
<path d="M0 0 C3.77545388 1.09068668 6.47043472 1.9083091 9 5 C6.75 6.1875 6.75 6.1875 4 7 C1.6875 5.875 1.6875 5.875 0 4 C0 2.68 0 1.36 0 0 Z " fill="#F1EBE7" transform="translate(72,38)"/>
<path d="M0 0 C0.99 0 1.98 0 3 0 C3.33 0.66 3.66 1.32 4 2 C5.32 1.34 6.64 0.68 8 0 C8.125 2.375 8.125 2.375 8 5 C7.34 5.66 6.68 6.32 6 7 C5.01 7 4.02 7 3 7 C2.896875 6.38125 2.79375 5.7625 2.6875 5.125 C2.12474627 2.63473516 2.12474627 2.63473516 -1 1 C-0.67 0.67 -0.34 0.34 0 0 Z " fill="#553221" transform="translate(133,104)"/>
<path d="M0 0 C2.875 -0.125 2.875 -0.125 6 0 C6.66 0.66 7.32 1.32 8 2 C7 5 7 5 5 8 C4.67 6.35 4.34 4.7 4 3 C2.68 2.67 1.36 2.34 0 2 C0 1.34 0 0.68 0 0 Z " fill="#492311" transform="translate(132,101)"/>
<path d="M0 0 C2.15059309 3.53186832 2.3797728 6.66287993 2.625 10.75 C2.69976562 11.92046875 2.77453125 13.0909375 2.8515625 14.296875 C2.90054688 15.18890625 2.94953125 16.0809375 3 17 C0.65709108 14.51565563 0.02017066 13.22268407 -0.29296875 9.765625 C-0.24076172 8.02539062 -0.24076172 8.02539062 -0.1875 6.25 C-0.16042969 5.07953125 -0.13335937 3.9090625 -0.10546875 2.703125 C-0.07066406 1.81109375 -0.03585938 0.9190625 0 0 Z " fill="#D1BCB2" transform="translate(111,163)"/>
<path d="M0 0 C1.98 0.99 1.98 0.99 4 2 C3.34 3.32 2.68 4.64 2 6 C2.66 6.66 3.32 7.32 4 8 C4.33 8.99 4.66 9.98 5 11 C3.35 10.67 1.7 10.34 0 10 C0 6.7 0 3.4 0 0 Z " fill="#F8B2A6" transform="translate(72,42)"/>
<path d="M0 0 C0.99 0 1.98 0 3 0 C3.33 1.98 3.66 3.96 4 6 C2.68 6.99 1.36 7.98 0 9 C0 6.03 0 3.06 0 0 Z " fill="#F6F7F4" transform="translate(72,101)"/>
<path d="M0 0 C2.93453261 0.36681658 3.86437246 0.86437246 6 3 C5.67 4.32 5.34 5.64 5 7 C2.69 5.35 0.38 3.7 -2 2 C-1.34 1.34 -0.68 0.68 0 0 Z " fill="#502E20" transform="translate(81,40)"/>
<path d="M0 0 C0.99 0 1.98 0 3 0 C2.125 4.75 2.125 4.75 1 7 C1.99 7.33 2.98 7.66 4 8 C2.68 8 1.36 8 0 8 C-1.125 5.6875 -1.125 5.6875 -2 3 C-1.34 2.01 -0.68 1.02 0 0 Z " fill="#190D07" transform="translate(146,33)"/>
<path d="M0 0 C0.66 0 1.32 0 2 0 C2 0.66 2 1.32 2 2 C2.66 2 3.32 2 4 2 C4 2.66 4 3.32 4 4 C3.01 4 2.02 4 1 4 C1 4.99 1 5.98 1 7 C0.34 7 -0.32 7 -1 7 C-1 6.01 -1 5.02 -1 4 C-1.99 4 -2.98 4 -4 4 C-4 3.34 -4 2.68 -4 2 C-2.68 2 -1.36 2 0 2 C0 1.34 0 0.68 0 0 Z " fill="#4A2714" transform="translate(147,16)"/>
<path d="M0 0 C0.66 0 1.32 0 2 0 C2.33 1.98 2.66 3.96 3 6 C1.02 6 -0.96 6 -3 6 C-3.33 5.01 -3.66 4.02 -4 3 C-2.68 3 -1.36 3 0 3 C0 2.01 0 1.02 0 0 Z " fill="#F7A594" transform="translate(166,98)"/>
<path d="M0 0 C0.99 0 1.98 0 3 0 C3 2.64 3 5.28 3 8 C2.01 8 1.02 8 0 8 C0 5.36 0 2.72 0 0 Z " fill="#FBC47F" transform="translate(38,88)"/>
<path d="M0 0 C4.455 0.99 4.455 0.99 9 2 C8.67 2.99 8.34 3.98 8 5 C5.6875 5.3125 5.6875 5.3125 3 5 C1.1875 2.5 1.1875 2.5 0 0 Z " fill="#4E2C24" transform="translate(77,164)"/>
<path d="M0 0 C4.455 0.99 4.455 0.99 9 2 C9 2.99 9 3.98 9 5 C6.69 4.67 4.38 4.34 2 4 C2 3.01 2 2.02 2 1 C1.34 0.67 0.68 0.34 0 0 Z " fill="#3F1B0D" transform="translate(113,161)"/>
<path d="M0 0 C2.64 0.33 5.28 0.66 8 1 C8 1.99 8 2.98 8 4 C5.6875 4.25 5.6875 4.25 3 4 C1.1875 2 1.1875 2 0 0 Z " fill="#5C382C" transform="translate(80,151)"/>
<path d="M0 0 C3.26954202 0.56371414 4.82575883 1.49962266 7 4 C6.67 4.66 6.34 5.32 6 6 C4.7934375 5.7525 4.7934375 5.7525 3.5625 5.5 C1.2715557 4.96808161 1.2715557 4.96808161 0 5 C0 3.35 0 1.7 0 0 Z " fill="#E0D6D1" transform="translate(72,144)"/>
<path d="M0 0 C0.99 0.33 1.98 0.66 3 1 C3.33 2.98 3.66 4.96 4 7 C2.35 6.67 0.7 6.34 -1 6 C-1.042721 4.33388095 -1.04063832 2.66617115 -1 1 C-0.67 0.67 -0.34 0.34 0 0 Z " fill="#592B16" transform="translate(92,86)"/>
<path d="M0 0 C2.60018816 3.90028225 2.15085514 7.47434569 2 12 C1.01 12 0.02 12 -1 12 C-1.14285714 3.42857143 -1.14285714 3.42857143 0 0 Z " fill="#56331F" transform="translate(115,172)"/>
<path d="M0 0 C0.33 0 0.66 0 1 0 C1 2.64 1 5.28 1 8 C1.66 8 2.32 8 3 8 C3 8.66 3 9.32 3 10 C1.68 10 0.36 10 -1 10 C-1.125 2.25 -1.125 2.25 0 0 Z " fill="#55352B" transform="translate(104,112)"/>
<path d="M0 0 C0.66 0 1.32 0 2 0 C1.49202991 4.3177458 0.80317221 8.03302114 -1 12 C-1.33 12 -1.66 12 -2 12 C-1.85962479 10.18706911 -1.71255111 8.3746557 -1.5625 6.5625 C-1.48128906 5.55316406 -1.40007812 4.54382812 -1.31640625 3.50390625 C-1 1 -1 1 0 0 Z " fill="#190903" transform="translate(142,28)"/>
<path d="M0 0 C1.32 0 2.64 0 4 0 C2.70700306 2.88437779 1.34058637 4.87219421 -1 7 C-1 6.34 -1 5.68 -1 5 C-1.66 4.67 -2.32 4.34 -3 4 C-2.34 4 -1.68 4 -1 4 C-0.67 2.68 -0.34 1.36 0 0 Z " fill="#EFDDD4" transform="translate(146,149)"/>
<path d="M0 0 C1.32 0.66 2.64 1.32 4 2 C3.67 3.32 3.34 4.64 3 6 C1.35 5.67 -0.3 5.34 -2 5 C-2 4.34 -2 3.68 -2 3 C-1.34 3 -0.68 3 0 3 C0 2.01 0 1.02 0 0 Z " fill="#EFE6E0" transform="translate(74,93)"/>
<path d="M0 0 C0.99 0.33 1.98 0.66 3 1 C3.33 2.98 3.66 4.96 4 7 C2.0625 6.1875 2.0625 6.1875 0 5 C-0.33 4.01 -0.66 3.02 -1 2 C-0.67 1.34 -0.34 0.68 0 0 Z " fill="#451E13" transform="translate(87,44)"/>
<path d="M0 0 C0.99 0 1.98 0 3 0 C3 1.98 3 3.96 3 6 C2.01 6 1.02 6 0 6 C-0.33 6.66 -0.66 7.32 -1 8 C-0.67 5.36 -0.34 2.72 0 0 Z " fill="#221108" transform="translate(154,24)"/>
<path d="M0 0 C2 2 2 2 2.1953125 3.9453125 C2.13020833 5.96354167 2.06510417 7.98177083 2 10 C1.01 10 0.02 10 -1 10 C-0.67 6.7 -0.34 3.4 0 0 Z " fill="#321708" transform="translate(115,166)"/>
<path d="M0 0 C1.6415049 3.2830098 0.51888624 6.42545033 0 10 C-1.65 10 -3.3 10 -5 10 C-4.34 9.67 -3.68 9.34 -3 9 C-2.62243192 7.67851173 -2.2981424 6.34164079 -2 5 C-1.3530635 3.3255761 -0.69040574 1.65697379 0 0 Z " fill="#F8E7E1" transform="translate(151,139)"/>
<path d="M0 0 C0 3 0 3 -2.5 5.6875 C-3.325 6.450625 -4.15 7.21375 -5 8 C-5 6.35 -5 4.7 -5 3 C-4.01 3 -3.02 3 -2 3 C-2 2.34 -2 1.68 -2 1 C-1.34 0.67 -0.68 0.34 0 0 Z " fill="#D78274" transform="translate(111,110)"/>
<path d="M0 0 C2.97 0.99 5.94 1.98 9 3 C9 3.99 9 4.98 9 6 C2.25 3.375 2.25 3.375 0 0 Z " fill="#442213" transform="translate(130,63)"/>
<path d="M0 0 C2.5 1.375 2.5 1.375 5 3 C5 3.66 5 4.32 5 5 C2.0625 4.625 2.0625 4.625 -1 4 C-1.33 3.34 -1.66 2.68 -2 2 C-1.34 2 -0.68 2 0 2 C0 1.34 0 0.68 0 0 Z " fill="#431E10" transform="translate(123,56)"/>
<path d="M0 0 C1.65 0.33 3.3 0.66 5 1 C4.67 1.99 4.34 2.98 4 4 C1.69 4.33 -0.62 4.66 -3 5 C-3 4.01 -3 3.02 -3 2 C-1.68 2 -0.36 2 1 2 C0.67 1.34 0.34 0.68 0 0 Z " fill="#FCE7DF" transform="translate(75,50)"/>
<path d="M0 0 C1.32 0 2.64 0 4 0 C4 1.65 4 3.3 4 5 C2.68 5 1.36 5 0 5 C0 3.35 0 1.7 0 0 Z " fill="#0F0302" transform="translate(135,24)"/>
<path d="M0 0 C0.99 1.32 1.98 2.64 3 4 C1.68 4.99 0.36 5.98 -1 7 C-1.625 5.1875 -1.625 5.1875 -2 3 C-1.34 2.01 -0.68 1.02 0 0 Z " fill="#F5E9E5" transform="translate(166,107)"/>
<path d="M0 0 C0.33 0 0.66 0 1 0 C0.25 7.625 0.25 7.625 -2 11 C-2 8.03 -2 5.06 -2 2 C-1.34 2 -0.68 2 0 2 C0 1.34 0 0.68 0 0 Z " fill="#DEC9BC" transform="translate(158,126)"/>
<path d="M0 0 C0.66 0 1.32 0 2 0 C1.67 2.64 1.34 5.28 1 8 C0.34 8 -0.32 8 -1 8 C-1.04241723 5.66705225 -1.04092937 3.33297433 -1 1 C-0.67 0.67 -0.34 0.34 0 0 Z " fill="#F4CA87" transform="translate(19,72)"/>
<path d="M0 0 C0 0.99 0 1.98 0 3 C-3.3 2.67 -6.6 2.34 -10 2 C-10 1.67 -10 1.34 -10 1 C-8.71073008 0.63720544 -7.41846728 0.28503302 -6.125 -0.0625 C-5.40570313 -0.25972656 -4.68640625 -0.45695313 -3.9453125 -0.66015625 C-2 -1 -2 -1 0 0 Z " fill="#0C0502" transform="translate(140,165)"/>
<path d="M0 0 C1.875 0.25 1.875 0.25 4 1 C5.25 3.0625 5.25 3.0625 6 5 C4.68 5 3.36 5 2 5 C1.34 3.35 0.68 1.7 0 0 Z " fill="#4A2219" transform="translate(77,146)"/>
<path d="M0 0 C0.33 0.99 0.66 1.98 1 3 C-0.4375 5.1875 -0.4375 5.1875 -2 7 C-2.66 5.68 -3.32 4.36 -4 3 C-2 1 -2 1 0 0 Z " fill="#ECE1DE" transform="translate(174,98)"/>
<path d="M0 0 C2.475 0.495 2.475 0.495 5 1 C5 4.10551666 4.4606285 5.35261084 3 8 C2.690625 7.05125 2.38125 6.1025 2.0625 5.125 C1.12605258 2.13919592 1.12605258 2.13919592 0 0 Z " fill="#F6EEE9" transform="translate(98,83)"/>
<path d="M0 0 C0.99 1.32 1.98 2.64 3 4 C2.67 4.66 2.34 5.32 2 6 C-1 6 -1 6 -4 5 C-2.68 4.67 -1.36 4.34 0 4 C0 2.68 0 1.36 0 0 Z " fill="#33190B" transform="translate(157,32)"/>
</svg>
