<?xml version="1.0" encoding="UTF-8"?>
<svg version="1.1" xmlns="http://www.w3.org/2000/svg" width="225" height="225">
<path d="M0 0 C74.25 0 148.5 0 225 0 C225 74.25 225 148.5 225 225 C150.75 225 76.5 225 0 225 C0 150.75 0 76.5 0 0 Z " fill="#1C1C1C" transform="translate(0,0)"/>
<path d="M0 0 C3 0.375 3 0.375 4.66621399 1.63044739 C6.33329884 3.81094502 6.36453532 4.9394854 6.34057617 7.6628418 C6.34023628 8.95384041 6.34023628 8.95384041 6.33988953 10.2709198 C6.32440567 11.19600845 6.30892181 12.12109711 6.29296875 13.07421875 C6.28872391 14.02440384 6.28447906 14.97458893 6.28010559 15.9535675 C6.26330484 18.99016588 6.22564992 22.02610202 6.1875 25.0625 C6.17245497 27.12043313 6.15876625 29.17837665 6.14648438 31.23632812 C6.11339671 36.28280748 6.06160462 41.32879144 6 46.375 C6.70299728 46.36389694 7.40599457 46.35279388 8.1302948 46.34135437 C14.76559493 46.24103825 21.40068251 46.16497796 28.03657055 46.11593914 C31.44796874 46.0898794 34.85873874 46.0545511 38.26977539 45.99780273 C42.19409584 45.93292597 46.11816474 45.9087893 50.04296875 45.88671875 C51.26396774 45.86091232 52.48496674 45.8351059 53.7429657 45.80851746 C63.17853494 45.80539388 63.17853494 45.80539388 66.24731445 48.84301758 C66.82570068 49.67857178 67.40408691 50.51412598 68 51.375 C68.33 51.705 68.66 52.035 69 52.375 C69.82042432 57.74397264 69.6649794 62.1206507 66.5078125 66.6484375 C65.4049462 68.03565729 64.27601882 69.40246577 63.125 70.75 C62.53074219 71.48476562 61.93648438 72.21953125 61.32421875 72.9765625 C59.57321905 75.13048041 57.79253601 77.25560803 56 79.375 C55.12156635 80.42899674 54.24386841 81.48360744 53.3671875 82.5390625 C51.78242559 84.43763865 50.19120862 86.33084436 48.59375 88.21875 C45.43672092 92.0071849 42.47706484 95.9447559 39.5 99.875 C34.88887988 105.96205597 30.17066729 111.89751515 25.20703125 117.703125 C23.09344073 120.26187884 21.21509596 122.90821109 19.3125 125.625 C16.83820758 128.84801448 16.42305109 129.28333893 12.25 130.1875 C9 129.375 9 129.375 7.31518555 127.92285156 C5.27662324 123.97363377 5.63155597 120.17439209 5.70703125 115.796875 C5.71127609 114.8703009 5.71552094 113.94372681 5.71989441 112.98907471 C5.73666678 110.03408566 5.77431645 107.07978239 5.8125 104.125 C5.8275487 102.11980153 5.84123678 100.11459235 5.85351562 98.109375 C5.88656562 93.19765304 5.93833818 88.28644274 6 83.375 C5.3117514 83.38610306 4.62350281 83.39720612 3.91439819 83.40864563 C-3.2556662 83.51935296 -10.42548739 83.59471533 -17.59619141 83.6496582 C-20.27180927 83.67196178 -22.94608993 83.708886 -25.62158203 83.75219727 C-29.46924766 83.8129198 -33.31600477 83.8412284 -37.1640625 83.86328125 C-38.35802643 83.88908768 -39.55199036 83.9148941 -40.78213501 83.94148254 C-50.05498585 83.9446073 -50.05498585 83.9446073 -53.73974609 81.03198242 C-56.49611589 77.79180393 -57.62280254 74.79212669 -57.515625 70.49609375 C-56.27318371 65.38514207 -52.25703379 61.37743627 -49 57.375 C-48.50709473 56.76414551 -48.01418945 56.15329102 -47.50634766 55.52392578 C-45.31967706 52.8157508 -43.12698569 50.11275485 -40.92114258 47.42016602 C-37.5387043 43.2911645 -34.23449368 39.12093144 -31 34.875 C-26.65522439 29.17646886 -22.16264253 23.61148991 -17.62744141 18.0637207 C-14.13477464 13.78752992 -10.7037976 9.47404916 -7.3671875 5.07421875 C-3.65175719 0.45646965 -3.65175719 0.45646965 0 0 Z " fill="#34B77C" transform="translate(106,47.625)"/>
<path d="M0 0 C3 0.375 3 0.375 4.66621399 1.41816711 C6.72212346 4.43444652 6.39210483 7.53704675 6.34057617 11.05932617 C6.34123329 12.23041176 6.34123329 12.23041176 6.34190369 13.42515564 C6.33981324 16.00634753 6.3164706 18.5868903 6.29296875 21.16796875 C6.28737369 22.95729721 6.28310317 24.74663027 6.28010559 26.53596497 C6.26864968 31.24609052 6.23917611 35.95593866 6.20599365 40.66595459 C6.17530883 45.47192634 6.16160365 50.27794291 6.14648438 55.08398438 C6.1143071 64.51444482 6.06310175 73.94469934 6 83.375 C-1.86522173 83.5018844 -9.73017905 83.58938779 -17.59619141 83.6496582 C-20.27180927 83.67196178 -22.94608993 83.708886 -25.62158203 83.75219727 C-29.46924766 83.8129198 -33.31600477 83.8412284 -37.1640625 83.86328125 C-38.35802643 83.88908768 -39.55199036 83.9148941 -40.78213501 83.94148254 C-50.05498585 83.9446073 -50.05498585 83.9446073 -53.73974609 81.03198242 C-56.49611589 77.79180393 -57.62280254 74.79212669 -57.515625 70.49609375 C-56.27318371 65.38514207 -52.25703379 61.37743627 -49 57.375 C-48.50709473 56.76414551 -48.01418945 56.15329102 -47.50634766 55.52392578 C-45.31967706 52.8157508 -43.12698569 50.11275485 -40.92114258 47.42016602 C-37.5387043 43.2911645 -34.23449368 39.12093144 -31 34.875 C-26.65522439 29.17646886 -22.16264253 23.61148991 -17.62744141 18.0637207 C-14.13477464 13.78752992 -10.7037976 9.47404916 -7.3671875 5.07421875 C-3.65175719 0.45646965 -3.65175719 0.45646965 0 0 Z " fill="#3DCE8D" transform="translate(106,47.625)"/>
<path d="M0 0 C9.9 0 19.8 0 30 0 C29.108763 3.56494799 28.75994773 4.63812224 26.6015625 7.27734375 C25.88226563 8.17163086 25.88226563 8.17163086 25.1484375 9.08398438 C24.64570313 9.69564453 24.14296875 10.30730469 23.625 10.9375 C18.05506547 17.77662534 14.28370781 24.0932024 11.5 32.5 C9.19395897 39.45288754 9.19395897 39.45288754 8 42 C7.01 42.495 7.01 42.495 6 43 C5.63128912 44.65919896 5.30404678 46.32774271 5 48 C4.36562656 49.6792238 3.70710678 51.35008418 3 53 C2.34 53 1.68 53 1 53 C1 61.58 1 70.16 1 79 C0.67 79 0.34 79 0 79 C0 52.93 0 26.86 0 0 Z " fill="#299C68" transform="translate(112,94)"/>
<path d="M0 0 C5.51556716 0.49027264 5.51556716 0.49027264 7.66455078 2.75146484 C10.01462794 6.70835893 9.79747419 10.55312406 9 15 C7.46397826 18.17444493 5.40800076 20.70278295 3.125 23.375 C2.24775269 24.45865845 2.24775269 24.45865845 1.3527832 25.56420898 C-0.40879697 27.72944966 -2.20110646 29.86572803 -4 32 C-5.03168987 33.2524734 -6.06175542 34.50628736 -7.08984375 35.76171875 C-9.3667372 38.5306561 -11.67257842 41.27329165 -14 44 C-14.66 43.01 -15.32 42.02 -16 41 C-14.94050466 36.1734101 -12.47284432 31.96267142 -10.234375 27.59765625 C-8.74900462 24.47179769 -7.6711277 21.3174921 -6.67578125 18.0078125 C-5.96101339 15.88416696 -5.03049539 13.98709071 -4 12 C-1.24600208 6.16683374 -1.24600208 6.16683374 0 0 Z " fill="#3CCA8B" transform="translate(166,95)"/>
<path d="M0 0 C2.93774463 -0.05390357 5.87450232 -0.0936255 8.8125 -0.125 C10.06256836 -0.15013672 10.06256836 -0.15013672 11.33789062 -0.17578125 C12.14033203 -0.18222656 12.94277344 -0.18867187 13.76953125 -0.1953125 C14.50792236 -0.20578613 15.24631348 -0.21625977 16.00708008 -0.22705078 C18 0 18 0 21 2 C20.21366078 3.14949588 19.42073742 4.29448989 18.625 5.4375 C18.18414062 6.07558594 17.74328125 6.71367188 17.2890625 7.37109375 C16 9 16 9 14 10 C14 10.66 14 11.32 14 12 C13.34 12 12.68 12 12 12 C11.731875 12.56203125 11.46375 13.1240625 11.1875 13.703125 C9.9196021 16.15550646 8.51027658 18.43927683 7 20.75 C6.484375 21.54921875 5.96875 22.3484375 5.4375 23.171875 C4.963125 23.77515625 4.48875 24.3784375 4 25 C3.34 25 2.68 25 2 25 C1.67 25.66 1.34 26.32 1 27 C0.04623433 23.79217914 -0.11621181 20.91812604 -0.09765625 17.578125 C-0.09443359 16.55332031 -0.09121094 15.52851562 -0.08789062 14.47265625 C-0.07951172 13.40917969 -0.07113281 12.34570312 -0.0625 11.25 C-0.05798828 10.17105469 -0.05347656 9.09210938 -0.04882812 7.98046875 C-0.03705727 5.32025617 -0.02061399 2.66015635 0 0 Z " fill="#259261" transform="translate(112,94)"/>
<path d="M0 0 C2.97 0.33 5.94 0.66 9 1 C7.03699519 4.92600963 5.22611601 7.09649559 2 10 C1.34 10 0.68 10 0 10 C0 6.7 0 3.4 0 0 Z " fill="#208457" transform="translate(112,94)"/>
</svg>
